solid OpenSCAD_Model
  facet normal 1 -0 0
    outer loop
      vertex 1.6 0 12.8
      vertex 1.6 52.9 11
      vertex 1.6 52.9 12.8
    endloop
  endfacet
  facet normal 1 0 0
    outer loop
      vertex 1.6 52.9 11
      vertex 1.6 0 12.8
      vertex 1.6 0 11
    endloop
  endfacet
  facet normal 0 0 -1
    outer loop
      vertex 1.6 0 12.8
      vertex 2.9 52.9 12.8
      vertex 2.9 0 12.8
    endloop
  endfacet
  facet normal -0 0 -1
    outer loop
      vertex 2.9 52.9 12.8
      vertex 1.6 0 12.8
      vertex 1.6 52.9 12.8
    endloop
  endfacet
  facet normal 0 0 -1
    outer loop
      vertex 21.2 0 12.8
      vertex 22.5 52.9 12.8
      vertex 22.5 0 12.8
    endloop
  endfacet
  facet normal -0 0 -1
    outer loop
      vertex 22.5 52.9 12.8
      vertex 21.2 0 12.8
      vertex 21.2 52.9 12.8
    endloop
  endfacet
  facet normal -1 0 0
    outer loop
      vertex 22.5 0 11
      vertex 22.5 52.9 12.8
      vertex 22.5 52.9 11
    endloop
  endfacet
  facet normal -1 -0 0
    outer loop
      vertex 22.5 52.9 12.8
      vertex 22.5 0 11
      vertex 22.5 0 12.8
    endloop
  endfacet
  facet normal -0 0 1
    outer loop
      vertex 20.55 52.9 11
      vertex 22.5 0 11
      vertex 22.5 52.9 11
    endloop
  endfacet
  facet normal 0 0 1
    outer loop
      vertex 22.5 0 11
      vertex 20.55 52.9 11
      vertex 20.55 0 11
    endloop
  endfacet
  facet normal -0 0 1
    outer loop
      vertex 1.6 52.9 11
      vertex 3.55 0 11
      vertex 3.55 52.9 11
    endloop
  endfacet
  facet normal 0 0 1
    outer loop
      vertex 3.55 0 11
      vertex 1.6 52.9 11
      vertex 1.6 0 11
    endloop
  endfacet
  facet normal 0 -1 0
    outer loop
      vertex 0 0 14.4
      vertex 1.6 0 12.8
      vertex 2.9 0 14.4
    endloop
  endfacet
  facet normal 0 -1 0
    outer loop
      vertex 0 0 14.4
      vertex 1.6 0 11
      vertex 1.6 0 12.8
    endloop
  endfacet
  facet normal 0 -1 0
    outer loop
      vertex 1.6 0 11
      vertex 3.55 0 9
      vertex 3.55 0 11
    endloop
  endfacet
  facet normal 0 -1 -0
    outer loop
      vertex 3.55 0 9
      vertex 0 0 0
      vertex 20.55 0 9
    endloop
  endfacet
  facet normal 0 -1 -0
    outer loop
      vertex 1.6 0 11
      vertex 0 0 0
      vertex 3.55 0 9
    endloop
  endfacet
  facet normal 0 -1 0
    outer loop
      vertex 0 0 0
      vertex 1.6 0 11
      vertex 0 0 14.4
    endloop
  endfacet
  facet normal 0 -1 -0
    outer loop
      vertex 2.9 0 14.4
      vertex 1.6 0 12.8
      vertex 2.9 0 12.8
    endloop
  endfacet
  facet normal 0 -1 0
    outer loop
      vertex 20.55 0 11
      vertex 20.55 0 9
      vertex 22.5 0 11
    endloop
  endfacet
  facet normal 0 -1 0
    outer loop
      vertex 22.5 0 12.8
      vertex 21.2 0 14.4
      vertex 21.2 0 12.8
    endloop
  endfacet
  facet normal 0 -1 0
    outer loop
      vertex 21.2 0 14.4
      vertex 22.5 0 12.8
      vertex 24.1 0 14.4
    endloop
  endfacet
  facet normal 0 -1 0
    outer loop
      vertex 22.5 0 11
      vertex 24.1 0 14.4
      vertex 22.5 0 12.8
    endloop
  endfacet
  facet normal 0 -1 0
    outer loop
      vertex 22.5 0 11
      vertex 24.1 0 0
      vertex 24.1 0 14.4
    endloop
  endfacet
  facet normal 0 -1 0
    outer loop
      vertex 20.55 0 9
      vertex 24.1 0 0
      vertex 22.5 0 11
    endloop
  endfacet
  facet normal 0 -1 0
    outer loop
      vertex 24.1 0 0
      vertex 20.55 0 9
      vertex 0 0 0
    endloop
  endfacet
  facet normal 0 -1 0
    outer loop
      vertex 3.55 52.9 9
      vertex 20.55 52.9 11
      vertex 3.55 52.9 11
    endloop
  endfacet
  facet normal 0 -1 -0
    outer loop
      vertex 20.55 52.9 11
      vertex 3.55 52.9 9
      vertex 20.55 52.9 9
    endloop
  endfacet
  facet normal 0 -1 0
    outer loop
      vertex 1.6 52.9 11
      vertex 2.9 52.9 12.8
      vertex 1.6 52.9 12.8
    endloop
  endfacet
  facet normal 0 -1 0
    outer loop
      vertex 2.9 52.9 12.8
      vertex 3.55 52.9 11
      vertex 21.2 52.9 12.8
    endloop
  endfacet
  facet normal 0 -1 -0
    outer loop
      vertex 2.9 52.9 12.8
      vertex 1.6 52.9 11
      vertex 3.55 52.9 11
    endloop
  endfacet
  facet normal 0 -1 0
    outer loop
      vertex 20.55 52.9 11
      vertex 21.2 52.9 12.8
      vertex 3.55 52.9 11
    endloop
  endfacet
  facet normal 0 -1 0
    outer loop
      vertex 22.5 52.9 11
      vertex 21.2 52.9 12.8
      vertex 20.55 52.9 11
    endloop
  endfacet
  facet normal 0 -1 0
    outer loop
      vertex 21.2 52.9 12.8
      vertex 22.5 52.9 11
      vertex 22.5 52.9 12.8
    endloop
  endfacet
  facet normal 0 -1 0
    outer loop
      vertex 2.9 52.9 12.8
      vertex 21.2 52.9 14.4
      vertex 2.9 52.9 14.4
    endloop
  endfacet
  facet normal 0 -1 -0
    outer loop
      vertex 21.2 52.9 14.4
      vertex 2.9 52.9 12.8
      vertex 21.2 52.9 12.8
    endloop
  endfacet
  facet normal 1 -0 0
    outer loop
      vertex 2.9 0 14.4
      vertex 2.9 52.9 12.8
      vertex 2.9 52.9 14.4
    endloop
  endfacet
  facet normal 1 0 0
    outer loop
      vertex 2.9 52.9 12.8
      vertex 2.9 0 14.4
      vertex 2.9 0 12.8
    endloop
  endfacet
  facet normal 0 0 1
    outer loop
      vertex 24.1 54.5 14.4
      vertex 21.2 52.9 14.4
      vertex 24.1 0 14.4
    endloop
  endfacet
  facet normal 0 0 1
    outer loop
      vertex 24.1 54.5 14.4
      vertex 2.9 52.9 14.4
      vertex 21.2 52.9 14.4
    endloop
  endfacet
  facet normal -0 0 1
    outer loop
      vertex 0 54.5 14.4
      vertex 2.9 52.9 14.4
      vertex 24.1 54.5 14.4
    endloop
  endfacet
  facet normal 0 0 1
    outer loop
      vertex 0 0 14.4
      vertex 2.9 52.9 14.4
      vertex 0 54.5 14.4
    endloop
  endfacet
  facet normal 0 0 1
    outer loop
      vertex 2.9 52.9 14.4
      vertex 0 0 14.4
      vertex 2.9 0 14.4
    endloop
  endfacet
  facet normal 0 0 1
    outer loop
      vertex 24.1 0 14.4
      vertex 21.2 52.9 14.4
      vertex 21.2 0 14.4
    endloop
  endfacet
  facet normal -1 0 0
    outer loop
      vertex 21.2 0 12.8
      vertex 21.2 52.9 14.4
      vertex 21.2 52.9 12.8
    endloop
  endfacet
  facet normal -1 -0 0
    outer loop
      vertex 21.2 52.9 14.4
      vertex 21.2 0 12.8
      vertex 21.2 0 14.4
    endloop
  endfacet
  facet normal 1 -0 0
    outer loop
      vertex 3.55 0 11
      vertex 3.55 52.9 9
      vertex 3.55 52.9 11
    endloop
  endfacet
  facet normal 1 0 0
    outer loop
      vertex 3.55 52.9 9
      vertex 3.55 0 11
      vertex 3.55 0 9
    endloop
  endfacet
  facet normal -1 0 0
    outer loop
      vertex 20.55 0 9
      vertex 20.55 52.9 11
      vertex 20.55 52.9 9
    endloop
  endfacet
  facet normal -1 -0 0
    outer loop
      vertex 20.55 52.9 11
      vertex 20.55 0 9
      vertex 20.55 0 11
    endloop
  endfacet
  facet normal -0 0 1
    outer loop
      vertex 3.55 52.9 9
      vertex 20.55 0 9
      vertex 20.55 52.9 9
    endloop
  endfacet
  facet normal 0 0 1
    outer loop
      vertex 20.55 0 9
      vertex 3.55 52.9 9
      vertex 3.55 0 9
    endloop
  endfacet
  facet normal -1 0 0
    outer loop
      vertex 0 0 0
      vertex 0 54.5 14.4
      vertex 0 54.5 0
    endloop
  endfacet
  facet normal -1 -0 0
    outer loop
      vertex 0 54.5 14.4
      vertex 0 0 0
      vertex 0 0 14.4
    endloop
  endfacet
  facet normal 1 -0 0
    outer loop
      vertex 24.1 0 14.4
      vertex 24.1 54.5 0
      vertex 24.1 54.5 14.4
    endloop
  endfacet
  facet normal 1 0 0
    outer loop
      vertex 24.1 54.5 0
      vertex 24.1 0 14.4
      vertex 24.1 0 0
    endloop
  endfacet
  facet normal 0 1 -0
    outer loop
      vertex 24.1 54.5 0
      vertex 0 54.5 14.4
      vertex 24.1 54.5 14.4
    endloop
  endfacet
  facet normal 0 1 0
    outer loop
      vertex 0 54.5 14.4
      vertex 24.1 54.5 0
      vertex 0 54.5 0
    endloop
  endfacet
  facet normal 0 0 -1
    outer loop
      vertex 0 0 0
      vertex 24.1 54.5 0
      vertex 24.1 0 0
    endloop
  endfacet
  facet normal -0 0 -1
    outer loop
      vertex 24.1 54.5 0
      vertex 0 0 0
      vertex 0 54.5 0
    endloop
  endfacet
endsolid OpenSCAD_Model
